<?xml version="1.0" encoding="UTF-8" standalone="no"?>
<!-- Created with Inkscape (http://www.inkscape.org/) -->

<svg
   xmlns:dc="http://purl.org/dc/elements/1.1/"
   xmlns:cc="http://creativecommons.org/ns#"
   xmlns:rdf="http://www.w3.org/1999/02/22-rdf-syntax-ns#"
   xmlns:svg="http://www.w3.org/2000/svg"
   xmlns="http://www.w3.org/2000/svg"
   xmlns:xlink="http://www.w3.org/1999/xlink"
   xmlns:sodipodi="http://sodipodi.sourceforge.net/DTD/sodipodi-0.dtd"
   xmlns:inkscape="http://www.inkscape.org/namespaces/inkscape"
   width="2"
   height="25"
   id="svg32934"
   version="1.1"
   inkscape:version="0.48.5 r10040"
   sodipodi:docname="header-separator.svg">
  <defs
     id="defs32936">
    <linearGradient
       id="linearGradient3757">
      <stop
         style="stop-color:#ffffff;stop-opacity:0.23921567;"
         offset="0"
         id="stop3759" />
      <stop
         id="stop3765"
         offset="0.5"
         style="stop-color:#ffffff;stop-opacity:0.54901963;" />
      <stop
         style="stop-color:#ffffff;stop-opacity:0.23921567;"
         offset="1"
         id="stop3761" />
    </linearGradient>
    <linearGradient
       inkscape:collect="always"
       xlink:href="#linearGradient3757"
       id="linearGradient3763"
       x1="2.1490486"
       y1="-9.0511456"
       x2="2.1490486"
       y2="15.966187"
       gradientUnits="userSpaceOnUse" />
    <linearGradient
       inkscape:collect="always"
       xlink:href="#linearGradient3757-8"
       id="linearGradient3763-6"
       x1="2.1490486"
       y1="-9.0511456"
       x2="2.1490486"
       y2="15.966187"
       gradientUnits="userSpaceOnUse" />
    <linearGradient
       id="linearGradient3757-8">
      <stop
         style="stop-color:#1f1f1f;stop-opacity:0.23999999;"
         offset="0"
         id="stop3759-6" />
      <stop
         id="stop3765-7"
         offset="0.5"
         style="stop-color:#1f1f1f;stop-opacity:1;" />
      <stop
         style="stop-color:#1f1f1f;stop-opacity:0.23999999;"
         offset="1"
         id="stop3761-8" />
    </linearGradient>
    <linearGradient
       gradientTransform="translate(-0.99999971,-2.2341797e-7)"
       y2="15.966187"
       x2="2.1490486"
       y1="-9.0511456"
       x1="2.1490486"
       gradientUnits="userSpaceOnUse"
       id="linearGradient3783"
       xlink:href="#linearGradient3757-8"
       inkscape:collect="always" />
  </defs>
  <sodipodi:namedview
     id="base"
     pagecolor="#ffffff"
     bordercolor="#666666"
     borderopacity="1.0"
     inkscape:pageopacity="0.0"
     inkscape:pageshadow="2"
     inkscape:zoom="11.313708"
     inkscape:cx="-18.437852"
     inkscape:cy="11.379732"
     inkscape:current-layer="layer1"
     showgrid="true"
     inkscape:grid-bbox="true"
     inkscape:document-units="px"
     inkscape:window-width="1227"
     inkscape:window-height="728"
     inkscape:window-x="1653"
     inkscape:window-y="112"
     inkscape:window-maximized="0" />
  <metadata
     id="metadata32939">
    <rdf:RDF>
      <cc:Work
         rdf:about="">
        <dc:format>image/svg+xml</dc:format>
        <dc:type
           rdf:resource="http://purl.org/dc/dcmitype/StillImage" />
        <dc:title />
      </cc:Work>
    </rdf:RDF>
  </metadata>
  <g
     id="layer1"
     inkscape:label="Layer 1"
     inkscape:groupmode="layer"
     transform="translate(0,9)">
    <path
       sodipodi:type="arc"
       style="fill:#4a5550;fill-opacity:1;stroke:none;display:inline;enable-background:new"
       id="path5824"
       sodipodi:cx="868.63647"
       sodipodi:cy="617.14966"
       sodipodi:rx="1.9003495"
       sodipodi:ry="1.9003495"
       d="m 870.53682,617.14966 c 0,1.04953 -0.85081,1.90035 -1.90035,1.90035 -1.04953,0 -1.90034,-0.85082 -1.90034,-1.90035 0,-1.04954 0.85081,-1.90035 1.90034,-1.90035 1.04954,0 1.90035,0.85081 1.90035,1.90035 z"
       transform="matrix(0.52621899,0,0,0.52621789,-504.97177,-318.19192)" />
    <path
       transform="matrix(0.52621899,0,0,0.52621789,-504.97177,-323.69193)"
       d="m 870.53682,617.14966 c 0,1.04953 -0.85081,1.90035 -1.90035,1.90035 -1.04953,0 -1.90034,-0.85082 -1.90034,-1.90035 0,-1.04954 0.85081,-1.90035 1.90034,-1.90035 1.04954,0 1.90035,0.85081 1.90035,1.90035 z"
       sodipodi:ry="1.9003495"
       sodipodi:rx="1.9003495"
       sodipodi:cy="617.14966"
       sodipodi:cx="868.63647"
       id="path5828"
       style="fill:#4a5550;fill-opacity:1;stroke:none;display:inline;enable-background:new"
       sodipodi:type="arc" />
    <path
       sodipodi:type="arc"
       style="fill:#4a5550;fill-opacity:1;stroke:none;display:inline;enable-background:new"
       id="path5830"
       sodipodi:cx="868.63647"
       sodipodi:cy="617.14966"
       sodipodi:rx="1.9003495"
       sodipodi:ry="1.9003495"
       d="m 870.53682,617.14966 c 0,1.04953 -0.85081,1.90035 -1.90035,1.90035 -1.04953,0 -1.90034,-0.85082 -1.90034,-1.90035 0,-1.04954 0.85081,-1.90035 1.90034,-1.90035 1.04954,0 1.90035,0.85081 1.90035,1.90035 z"
       transform="matrix(0.52621899,0,0,0.52621789,-504.97177,-329.19193)" />
    <path
       sodipodi:type="arc"
       style="fill:#4a5550;fill-opacity:1;stroke:none;display:inline;enable-background:new"
       id="path5824-3"
       sodipodi:cx="868.63647"
       sodipodi:cy="617.14966"
       sodipodi:rx="1.9003495"
       sodipodi:ry="1.9003495"
       d="m 870.53682,617.14966 c 0,1.04953 -0.85081,1.90035 -1.90035,1.90035 -1.04953,0 -1.90034,-0.85082 -1.90034,-1.90035 0,-1.04954 0.85081,-1.90035 1.90034,-1.90035 1.04954,0 1.90035,0.85081 1.90035,1.90035 z"
       transform="matrix(0.52621899,0,0,0.52621789,-504.97177,-307.19191)" />
    <path
       transform="matrix(0.52621899,0,0,0.52621789,-504.97177,-312.69192)"
       d="m 870.53682,617.14966 c 0,1.04953 -0.85081,1.90035 -1.90035,1.90035 -1.04953,0 -1.90034,-0.85082 -1.90034,-1.90035 0,-1.04954 0.85081,-1.90035 1.90034,-1.90035 1.04954,0 1.90035,0.85081 1.90035,1.90035 z"
       sodipodi:ry="1.9003495"
       sodipodi:rx="1.9003495"
       sodipodi:cy="617.14966"
       sodipodi:cx="868.63647"
       id="path5828-7"
       style="fill:#4a5550;fill-opacity:1;stroke:none;display:inline;enable-background:new"
       sodipodi:type="arc" />
    <rect
       style="opacity:0.14;fill:url(#linearGradient3763);fill-opacity:1;stroke:none"
       id="rect3755"
       width="1"
       height="25"
       x="1"
       y="-9"
       rx="0"
       ry="0" />
    <rect
       style="fill:url(#linearGradient3783);fill-opacity:1;stroke:none;opacity:0.45"
       id="rect3755-5"
       width="1"
       height="25"
       x="0"
       y="-9"
       rx="0"
       ry="0" />
  </g>
</svg>
